<svg xmlns="http://www.w3.org/2000/svg" viewBox="0 0 1440 900" font-family="IBM Plex Sans, Segoe UI, sans-serif" xmlns:c2pa="http://c2pa.org/manifest"><metadata><c2pa:manifest>AAAWgmp1bWIAAAAeanVtZGMycGEAEQAQgAAAqgA4m3EDYzJwYQAAABZcanVtYgAAAEdqdW1kYzJtYQARABCAAACqADibcQN1cm46YzJwYTo2ZTczNmQxZi1hNmNjLTQ1MWUtYTk4YS1kNjBjNDA0YzdhYjQAAAADl2p1bWIAAAApanVtZGMyYXMAEQAQgAAAqgA4m3EDYzJwYS5hc3NlcnRpb25zAAAAALxqdW1iAAAARGp1bWRjYm9yABEAEIAAAKoAOJtxE2MycGEuaW5ncmVkaWVudC52MwAAAAAYYzJzaKsidH1Vz4wQynx+zBBqoW8AAABwY2JvcqNpZGM6Zm9ybWF0bWltYWdlL3N2Zyt4bWxqaW5zdGFuY2VJRHgseG1wOmlpZDoxOWViOTIzNC0wMzNmLTQ3N2EtYTQwYS0xMjNhMGM0MGEzNWRscmVsYXRpb25zaGlwaHBhcmVudE9mAAAB4mp1bWIAAABBanVtZGNib3IAEQAQgAAAqgA4m3ETYzJwYS5hY3Rpb25zLnYyAAAAABhjMnNowlu/GdRRe45/x2GTj8f0EAAAAZljYm9yomdhY3Rpb25zgqJmYWN0aW9ua2MycGEub3BlbmVkanBhcmFtZXRlcnOha2luZ3JlZGllbnRzgaJjdXJseC1zZWxmI2p1bWJmPWMycGEuYXNzZXJ0aW9ucy9jMnBhLmluZ3JlZGllbnQudjNkaGFzaFggRakr2r+emUtGuEiv/WEZw3cd093qw1RsZkReUybiKTWkZmFjdGlvbngdY29tLmFudGhyb3BpYy5jbGF1ZGUucHJvdmlkZWRqcGFyYW1ldGVyc6F4H2NvbS5hbnRocm9waWMub3JpZ2luLWNvbmZpZGVuY2VndW5rbm93bmtkZXNjcmlwdGlvbnhmQ2xhdWRlIHByb3ZpZGVkIHRoaXMgZmlsZSBhdCB0aGUgcmVxdWVzdCBvZiBhIHVzZXIgYW5kIG1heSBoYXZlIGNyZWF0ZWQgb3IgbW9kaWZpZWQgdGhlIGZpbGUgY29udGVudHMubXNvZnR3YXJlQWdlbnShZG5hbWVmQ2xhdWRlcmFsbEFjdGlvbnNJbmNsdWRlZPUAAADIanVtYgAAAEBqdW1kY2JvcgARABCAAACqADibcRNjMnBhLmhhc2guZGF0YQAAAAAYYzJzaNbH0yQnA03b5uYM3AycrCMAAACAY2JvcqVjYWxnZnNoYTI1NmNwYWRNAAAAAAAAAAAAAAAAAGRoYXNoWCBtJwKBvgMpUdpJ88QcNT+vErUm7PuRj2OFDy+Ha02hTWRuYW1lbmp1bWJmIG1hbmlmZXN0amV4Y2x1c2lvbnOBomVzdGFydBiwZmxlbmd0aBkeBAAAAj5qdW1iAAAAJ2p1bWRjMmNsABEAEIAAAKoAOJtxA2MycGEuY2xhaW0udjIAAAACD2Nib3KlY2FsZ2ZzaGEyNTZpc2lnbmF0dXJleE1zZWxmI2p1bWJmPS9jMnBhL3VybjpjMnBhOjZlNzM2ZDFmLWE2Y2MtNDUxZS1hOThhLWQ2MGM0MDRjN2FiNC9jMnBhLnNpZ25hdHVyZWppbnN0YW5jZUlEeCx4bXA6aWlkOjgxYWJjMGY4LThjMjYtNDRiZS04Y2RkLTM4NmM0NGQxN2ZiN3JjcmVhdGVkX2Fzc2VydGlvbnODomN1cmx4LXNlbGYjanVtYmY9YzJwYS5hc3NlcnRpb25zL2MycGEuaW5ncmVkaWVudC52M2RoYXNoWCBFqSvav56ZS0a4SK/9YRnDdx3T3erDVGxmRF5TJuIpNaJjdXJseCpzZWxmI2p1bWJmPWMycGEuYXNzZXJ0aW9ucy9jMnBhLmFjdGlvbnMudjJkaGFzaFggoIimMa/qcihyJggqOQZIg6fExf2LYKVQ8Fu+zZ2XcR2iY3VybHgpc2VsZiNqdW1iZj1jMnBhLmFzc2VydGlvbnMvYzJwYS5oYXNoLmRhdGFkaGFzaFggFk8xDDg+1M5GvSMnPZgtpT13NYMTjHr9LbAhtn58d+N0Y2xhaW1fZ2VuZXJhdG9yX2luZm+jZG5hbWVvQW50aHJvcGljIEZpbGVzZ3ZlcnNpb25lMS4wLjBrc3BlY1ZlcnNpb25lMi40LjAAABA4anVtYgAAAChqdW1kYzJjcwARABCAAACqADibcQNjMnBhLnNpZ25hdHVyZQAAABAIY2JvctKEWQISogEmGCFZAgowggIGMIIBjaADAgECAhRA5aAK7sI50L64g/oGQgU9Z1UTADAKBggqhkjOPQQDAzBJMRcwFQYDVQQKEw5BbnRocm9waWMsIFBCQzEuMCwGA1UEAxMlQW50aHJvcGljIENvbnRlbnQgQ3JlZGVudGlhbHMgUm9vdCBDQTAeFw0yNjA4MDcxODQzNTZaFw0yODA4MDYxOTQzNTZaMEQxFzAVBgNVBAoTDkFudGhyb3BpYywgUEJDMSkwJwYDVQQDEyBBbnRocm9waWMgQ2xhdWRlIENvbnRlbnQgU2lnbmluZzBZMBMGByqGSM49AgEGCCqGSM49AwEHA0IABJh6CmvLUBgFFNU0vUKlOVtE6djd17L5SuwX0LemFisBM3dkd/3cyjxFA3Qo5S46fX0/ihY0VZ7mfb9KF703t5OjWDBWMA4GA1UdDwEB/wQEAwIHgDAVBgNVHSUEDjAMBgorBgEEAYPoXgIBMAwGA1UdEwEB/wQCMAAwHwYDVR0jBBgwFoAUzlHiBIFOZFsj+OPEz5o+nMHXXMIwCgYIKoZIzj0EAwMDZwAwZAIwMXMdFJ4BetLLVY7ORuE9noqbbAZOZn/aArXyTwFAZfKrPzxF2vPoJNf1+UCdg1XGAjBwX1zd9WGqYkqmL5SFqw1QySjr1zJfpJM9+1rdDwSPLMOPOjKuiXjoU/pUUeG9RwmhY3BhZFkNngAAAAAAAAAAAAAAAAAAAAAAAAAAAAAAAAAAAAAAAAAAAAAAAAAAAAAAAAAAAAAAAAAAAAAAAAAAAAAAAAAAAAAAAAAAAAAAAAAAAAAAAAAAAAAAAAAAAAAAAAAAAAAAAAAAAAAAAAAAAAAAAAAAAAAAAAAAAAAAAAAAAAAAAAAAAAAAAAAAAAAAAAAAAAAAAAAAAAAAAAAAAAAAAAAAAAAAAAAAAAAAAAAAAAAAAAAAAAAAAAAAAAAAAAAAAAAAAAAAAAAAAAAAAAAAAAAAAAAAAAAAAAAAAAAAAAAAAAAAAAAAAAAAAAAAAAAAAAAAAAAAAAAAAAAAAAAAAAAAAAAAAAAAAAAAAAAAAAAAAAAAAAAAAAAAAAAAAAAAAAAAAAAAAAAAAAAAAAAAAAAAAAAAAAAAAAAAAAAAAAAAAAAAAAAAAAAAAAAAAAAAAAAAAAAAAAAAAAAAAAAAAAAAAAAAAAAAAAAAAAAAAAAAAAAAAAAAAAAAAAAAAAAAAAAAAAAAAAAAAAAAAAAAAAAAAAAAAAAAAAAAAAAAAAAAAAAAAAAAAAAAAAAAAAAAAAAAAAAAAAAAAAAAAAAAAAAAAAAAAAAAAAAAAAAAAAAAAAAAAAAAAAAAAAAAAAAAAAAAAAAAAAAAAAAAAAAAAAAAAAAAAAAAAAAAAAAAAAAAAAAAAAAAAAAAAAAAAAAAAAAAAAAAAAAAAAAAAAAAAAAAAAAAAAAAAAAAAAAAAAAAAAAAAAAAAAAAAAAAAAAAAAAAAAAAAAAAAAAAAAAAAAAAAAAAAAAAAAAAAAAAAAAAAAAAAAAAAAAAAAAAAAAAAAAAAAAAAAAAAAAAAAAAAAAAAAAAAAAAAAAAAAAAAAAAAAAAAAAAAAAAAAAAAAAAAAAAAAAAAAAAAAAAAAAAAAAAAAAAAAAAAAAAAAAAAAAAAAAAAAAAAAAAAAAAAAAAAAAAAAAAAAAAAAAAAAAAAAAAAAAAAAAAAAAAAAAAAAAAAAAAAAAAAAAAAAAAAAAAAAAAAAAAAAAAAAAAAAAAAAAAAAAAAAAAAAAAAAAAAAAAAAAAAAAAAAAAAAAAAAAAAAAAAAAAAAAAAAAAAAAAAAAAAAAAAAAAAAAAAAAAAAAAAAAAAAAAAAAAAAAAAAAAAAAAAAAAAAAAAAAAAAAAAAAAAAAAAAAAAAAAAAAAAAAAAAAAAAAAAAAAAAAAAAAAAAAAAAAAAAAAAAAAAAAAAAAAAAAAAAAAAAAAAAAAAAAAAAAAAAAAAAAAAAAAAAAAAAAAAAAAAAAAAAAAAAAAAAAAAAAAAAAAAAAAAAAAAAAAAAAAAAAAAAAAAAAAAAAAAAAAAAAAAAAAAAAAAAAAAAAAAAAAAAAAAAAAAAAAAAAAAAAAAAAAAAAAAAAAAAAAAAAAAAAAAAAAAAAAAAAAAAAAAAAAAAAAAAAAAAAAAAAAAAAAAAAAAAAAAAAAAAAAAAAAAAAAAAAAAAAAAAAAAAAAAAAAAAAAAAAAAAAAAAAAAAAAAAAAAAAAAAAAAAAAAAAAAAAAAAAAAAAAAAAAAAAAAAAAAAAAAAAAAAAAAAAAAAAAAAAAAAAAAAAAAAAAAAAAAAAAAAAAAAAAAAAAAAAAAAAAAAAAAAAAAAAAAAAAAAAAAAAAAAAAAAAAAAAAAAAAAAAAAAAAAAAAAAAAAAAAAAAAAAAAAAAAAAAAAAAAAAAAAAAAAAAAAAAAAAAAAAAAAAAAAAAAAAAAAAAAAAAAAAAAAAAAAAAAAAAAAAAAAAAAAAAAAAAAAAAAAAAAAAAAAAAAAAAAAAAAAAAAAAAAAAAAAAAAAAAAAAAAAAAAAAAAAAAAAAAAAAAAAAAAAAAAAAAAAAAAAAAAAAAAAAAAAAAAAAAAAAAAAAAAAAAAAAAAAAAAAAAAAAAAAAAAAAAAAAAAAAAAAAAAAAAAAAAAAAAAAAAAAAAAAAAAAAAAAAAAAAAAAAAAAAAAAAAAAAAAAAAAAAAAAAAAAAAAAAAAAAAAAAAAAAAAAAAAAAAAAAAAAAAAAAAAAAAAAAAAAAAAAAAAAAAAAAAAAAAAAAAAAAAAAAAAAAAAAAAAAAAAAAAAAAAAAAAAAAAAAAAAAAAAAAAAAAAAAAAAAAAAAAAAAAAAAAAAAAAAAAAAAAAAAAAAAAAAAAAAAAAAAAAAAAAAAAAAAAAAAAAAAAAAAAAAAAAAAAAAAAAAAAAAAAAAAAAAAAAAAAAAAAAAAAAAAAAAAAAAAAAAAAAAAAAAAAAAAAAAAAAAAAAAAAAAAAAAAAAAAAAAAAAAAAAAAAAAAAAAAAAAAAAAAAAAAAAAAAAAAAAAAAAAAAAAAAAAAAAAAAAAAAAAAAAAAAAAAAAAAAAAAAAAAAAAAAAAAAAAAAAAAAAAAAAAAAAAAAAAAAAAAAAAAAAAAAAAAAAAAAAAAAAAAAAAAAAAAAAAAAAAAAAAAAAAAAAAAAAAAAAAAAAAAAAAAAAAAAAAAAAAAAAAAAAAAAAAAAAAAAAAAAAAAAAAAAAAAAAAAAAAAAAAAAAAAAAAAAAAAAAAAAAAAAAAAAAAAAAAAAAAAAAAAAAAAAAAAAAAAAAAAAAAAAAAAAAAAAAAAAAAAAAAAAAAAAAAAAAAAAAAAAAAAAAAAAAAAAAAAAAAAAAAAAAAAAAAAAAAAAAAAAAAAAAAAAAAAAAAAAAAAAAAAAAAAAAAAAAAAAAAAAAAAAAAAAAAAAAAAAAAAAAAAAAAAAAAAAAAAAAAAAAAAAAAAAAAAAAAAAAAAAAAAAAAAAAAAAAAAAAAAAAAAAAAAAAAAAAAAAAAAAAAAAAAAAAAAAAAAAAAAAAAAAAAAAAAAAAAAAAAAAAAAAAAAAAAAAAAAAAAAAAAAAAAAAAAAAAAAAAAAAAAAAAAAAAAAAAAAAAAAAAAAAAAAAAAAAAAAAAAAAAAAAAAAAAAAAAAAAAAAAAAAAAAAAAAAAAAAAAAAAAAAAAAAAAAAAAAAAAAAAAAAAAAAAAAAAAAAAAAAAAAAAAAAAAAAAAAAAAAAAAAAAAAAAAAAAAAAAAAAAAAAAAAAAAAAAAAAAAAAAAAAAAAAAAAAAAAAAAAAAAAAAAAAAAAAAAAAAAAAAAAAAAAAAAAAAAAAAAAAAAAAAAAAAAAAAAAAAAAAAAAAAAAAAAAAAAAAAAAAAAAAAAAAAAAAAAAAAAAAAAAAAAAAAAAAAAAAAAAAAAAAAAAAAAAAAAAAAAAAAAAAAAAAAAAAAAAAAAAAAAAAAAAAAAAAAAAAAAAAAAAAAAAAAAAAAAAAAAAAAAAAAAAAAAAAAAAAAAAAAAAAAAAAAAAAAAAAAAAAAAAAAAAAAAAAAAAAAAAAAAAAAAAAAAAAAAAAAAAAAAAAAAAAAAAAAAAAAAAAAAAAAAAAAAAAAAAAAAAAAAAAAAAAAAAAAAAAAAAAAAAAAAAAAAAAAAAAAAAAAAAAAAAAAAAAAAAAAAAAAAAAAAAAAAAAAAAAAAAAAAAAAAAAAAAAAAAAAAAAAAAAAAAAAAAAAAAAAAAAAAAAAAAAAAAAAAAAAAAAAAAAAAAAAAAAAAAAAAAAAAAAAAAAAAAAAAAAAAAAAAAAAAAAAAAAAAAAAAAAAAAAAAAAAAAAAAAAAAAAAAAAAAAAAAAAAAAAAAAAAAAAAAAAAAAAAAAAAAAAAAAAAAAAAAAAAAAAAAAAAAAAAAAAAAAAAAAAAAAAAAAAAAAAAAAAAAAAAAAAAAAAAAAAAAAAAAAAAAAAAAAAAAAAAAAAAAAAAAAAAAAAAAAAAAAAAAAAAAAAAAAAAAAAAAAAAAAAAAAAAAAAAAAAAAAAAAAAAAAAAAAAAAAAAAAAAAAAAAAAAAAAAAAAAAAAAAAAAAAAAAAAAAAAAAAAAAAAAAAAAAAAAAAAAAAAAAAAAAAAAAAAAAAAAAAAAAAAAAAAAAAAAAAAAAAAAAAAAAAAAAAAAAAAAAAAAAAAAAAAAAAAAAAAAAAAAAAAAAAAAAAAAAAAAAAAAAAAAAAAAAAAAAAAAAAAAAAAAAAAAAAAAAAAAAAAAAAAAAAAAAAAAAAAAAAAAAAAAAAAAAAAAAAAAAAAAAAAAAAAAAAAAAAAAAAAAAAAAAAAAAAAAAAAAAAAAAAAAAAAAAAAAAAAAAAAAAAAAAAAAAAAAAAAAAAAAAAAAAAAAAAAAAAAAAAAAAAAAAAAAAAAAAAAAAAAAAAAAAAAAAAAAAAAAAAAAAAAAAAAAAAAAAAAAAAAAAAAAAAAAAAAAAAAAAAAAAAAAAAAAAAAAAAAAAAAAAAAAAAAAAAAAAAAAAAAAAAAAAAAAAAAAAAAAAAAAAAAAAAAAAAAAAAAAAAAAAAAAAAAAAAAAAAAAAAAAAAAAAAAAAAAAAAAAAAAAAAAAAAAAAAAAAAAAAAAAAAAAAAAAAAAAAAAAAAAAAAAAAAAAAAAAAAAAAAAAAAAAAAAAAAAAAAAAAAAAAAAAAAAAAAAAAAAAAAAAAAAAAAAAAAAAAAAAAAAAAAAAAAAAAAAAAAAAAAAAAAAAAAAAAAAAAAAAAAAAAAAAAAAAAAAAAAAAAAAAAAAAAAAAAAAAAAAAAAAAAAAAAAAAAAAAAAAAAAAAAAAAAAAAAAAAAAAAAAAAAAAAAAAAAAAAAAAAAAAAAAAAAAAPZYQDKhg+XuKtnVyCo4dyCxyB0J7VC5vBorIVEQChUJDEJKjRDKyWyypWqMlhMB9XQxfcJYg5Js2Gro2D8Isu6hSU8=</c2pa:manifest></metadata><rect x="0" y="0" width="1440" height="900" fill="#F5F2EE"></rect><rect x="0" y="0" width="1440" height="32" fill="#ECE8E3"></rect><path d="M0 32.5H1440" stroke="#DDD7D0"></path><g transform="translate(10 8)" fill="none" stroke="#A85C24" stroke-width="1.25" stroke-linejoin="round"><path d="M8 14L2 8V5l2-2h2l2 2 2-2h2l2 2v3z"></path><path d="M5 8l3 3 3-3"></path></g><text x="34" y="20.5" font-family="IBM Plex Sans, Segoe UI, sans-serif" font-size="12" font-weight="500" fill="#211E1B">WinLove</text><path d="M88.5 10V22" stroke="#C4BDB5"></path><text x="101" y="20.5" font-family="IBM Plex Sans, Segoe UI, sans-serif" font-size="12" font-weight="400" fill="#211E1B">Kaynak seç</text><rect x="580.5" y="6.5" width="279" height="19" fill="#F5F2EE" stroke="#C4BDB5" rx="3"></rect><g transform="translate(586 8)" fill="none" stroke="#857D75" stroke-width="1.25" stroke-linecap="round" stroke-linejoin="round"><path d="M7 2.5a4.5 4.5 0 1 0 0 9a4.5 4.5 0 1 0 0-9z M10.5 10.5L14 14"></path></g><text x="608" y="20" font-family="IBM Plex Sans, Segoe UI, sans-serif" font-size="11" font-weight="400" fill="#857D75">Komut, sayfa veya bileşen ara</text><rect x="800.5" y="6.5" width="28.6" height="13" fill="none" stroke="#C4BDB5" rx="2"></rect><text x="814.8" y="16" font-family="JetBrains Mono, Cascadia Mono, monospace" font-size="10" font-weight="400" fill="#857D75" text-anchor="middle">Ctrl</text><rect x="834.5" y="6.5" width="12.4" height="13" fill="none" stroke="#C4BDB5" rx="2"></rect><text x="840.7" y="16" font-family="JetBrains Mono, Cascadia Mono, monospace" font-size="10" font-weight="400" fill="#857D75" text-anchor="middle">K</text><g transform="translate(1317 8)" fill="none" stroke="#625B54" stroke-width="1.25" stroke-linecap="round" stroke-linejoin="round"><path d="M3 8h10"></path></g><g transform="translate(1363 8)" fill="none" stroke="#625B54" stroke-width="1.25" stroke-linecap="round" stroke-linejoin="round"><path d="M3.5 3.5h9v9h-9z"></path></g><g transform="translate(1409 8)" fill="none" stroke="#625B54" stroke-width="1.25" stroke-linecap="round" stroke-linejoin="round"><path d="M4 4l8 8 M12 4l-8 8"></path></g><rect x="0" y="33" width="200" height="842" fill="#ECE8E3"></rect><path d="M200.5 33V875" stroke="#DDD7D0"></path><rect x="4" y="45" width="192" height="24" fill="#E3DED8" rx="3"></rect><rect x="4" y="51" width="2" height="12" fill="#A85C24"></rect><g transform="translate(16 49)" fill="none" stroke="#211E1B" stroke-width="1.25" stroke-linecap="round" stroke-linejoin="round"><path d="M2 4h12v9H2z M2 7h12"></path></g><text x="40" y="61.5" font-family="IBM Plex Sans, Segoe UI, sans-serif" font-size="12" font-weight="400" fill="#211E1B">Kaynak</text><g transform="translate(16 73)" fill="none" stroke="#625B54" stroke-width="1.25" stroke-linecap="round" stroke-linejoin="round"><path d="M8 2l6 3-6 3-6-3z M2 8l6 3 6-3 M2 11l6 3 6-3"></path></g><text x="40" y="85.5" font-family="IBM Plex Sans, Segoe UI, sans-serif" font-size="12" font-weight="400" fill="#625B54">İmajlar</text><path d="M0 97.5H200" stroke="#DDD7D0"></path><g transform="translate(16 106)" fill="none" stroke="#625B54" stroke-width="1.25" stroke-linecap="round" stroke-linejoin="round"><path d="M8 2a6 6 0 1 0 0 12a6 6 0 1 0 0-12z M5 8h6"></path></g><text x="40" y="118.5" font-family="IBM Plex Sans, Segoe UI, sans-serif" font-size="12" font-weight="400" fill="#625B54">Bileşenler</text><text x="188" y="118" font-family="JetBrains Mono, Cascadia Mono, monospace" font-size="11" font-weight="400" fill="#857D75" text-anchor="end">14</text><g transform="translate(16 130)" fill="none" stroke="#625B54" stroke-width="1.25" stroke-linecap="round" stroke-linejoin="round"><path d="M3 3h4v2a1 1 0 0 0 2 0V3h4v4h-2a1 1 0 0 0 0 2h2v4H3z"></path></g><text x="40" y="142.5" font-family="IBM Plex Sans, Segoe UI, sans-serif" font-size="12" font-weight="400" fill="#625B54">Özellikler</text><text x="188" y="142" font-family="JetBrains Mono, Cascadia Mono, monospace" font-size="11" font-weight="400" fill="#857D75" text-anchor="end">2</text><g transform="translate(16 154)" fill="none" stroke="#625B54" stroke-width="1.25" stroke-linecap="round" stroke-linejoin="round"><path d="M8 2v8 M5 7l3 3 3-3 M3 13h10"></path></g><text x="40" y="166.5" font-family="IBM Plex Sans, Segoe UI, sans-serif" font-size="12" font-weight="400" fill="#625B54">Güncellemeler</text><text x="188" y="166" font-family="JetBrains Mono, Cascadia Mono, monospace" font-size="11" font-weight="400" fill="#857D75" text-anchor="end">3</text><g transform="translate(16 178)" fill="none" stroke="#625B54" stroke-width="1.25" stroke-linecap="round" stroke-linejoin="round"><path d="M5 5h6v6H5z M8 2v3 M8 11v3 M2 8h3 M11 8h3"></path></g><text x="40" y="190.5" font-family="IBM Plex Sans, Segoe UI, sans-serif" font-size="12" font-weight="400" fill="#625B54">Sürücüler</text><path d="M0 202.5H200" stroke="#DDD7D0"></path><g transform="translate(16 211)" fill="none" stroke="#625B54" stroke-width="1.25" stroke-linecap="round" stroke-linejoin="round"><path d="M4 2v12 M4 5h5 M4 9h5 M9 4v2 M9 8v2"></path></g><text x="40" y="223.5" font-family="IBM Plex Sans, Segoe UI, sans-serif" font-size="12" font-weight="400" fill="#625B54">Kayıt Defteri</text><text x="188" y="223" font-family="JetBrains Mono, Cascadia Mono, monospace" font-size="11" font-weight="400" fill="#857D75" text-anchor="end">6</text><g transform="translate(16 235)" fill="none" stroke="#625B54" stroke-width="1.25" stroke-linecap="round" stroke-linejoin="round"><path d="M8 5a3 3 0 1 0 0 6a3 3 0 1 0 0-6z M8 1.5v2 M8 12.5v2 M1.5 8h2 M12.5 8h2 M3.4 3.4l1.4 1.4 M11.2 11.2l1.4 1.4 M3.4 12.6l1.4-1.4 M11.2 4.8l1.4-1.4"></path></g><text x="40" y="247.5" font-family="IBM Plex Sans, Segoe UI, sans-serif" font-size="12" font-weight="400" fill="#625B54">Servisler</text><text x="188" y="247" font-family="JetBrains Mono, Cascadia Mono, monospace" font-size="11" font-weight="400" fill="#857D75" text-anchor="end">1</text><g transform="translate(16 259)" fill="none" stroke="#625B54" stroke-width="1.25" stroke-linecap="round" stroke-linejoin="round"><path d="M2 4h12 M2 8h12 M2 12h12 M5 2.5v3 M11 6.5v3 M7 10.5v3"></path></g><text x="40" y="271.5" font-family="IBM Plex Sans, Segoe UI, sans-serif" font-size="12" font-weight="400" fill="#625B54">Ayarlar / Tweaks</text><text x="188" y="271" font-family="JetBrains Mono, Cascadia Mono, monospace" font-size="11" font-weight="400" fill="#857D75" text-anchor="end">9</text><path d="M0 283.5H200" stroke="#DDD7D0"></path><g transform="translate(16 292)" fill="none" stroke="#625B54" stroke-width="1.25" stroke-linecap="round" stroke-linejoin="round"><path d="M3 5h10v8H3z M6 8.5h1 M9 8.5h1 M8 2v3 M5 13v1 M11 13v1"></path></g><text x="40" y="304.5" font-family="IBM Plex Sans, Segoe UI, sans-serif" font-size="12" font-weight="400" fill="#625B54">Katılımsız Kurulum</text><g transform="translate(16 316)" fill="none" stroke="#625B54" stroke-width="1.25" stroke-linecap="round" stroke-linejoin="round"><path d="M8 1.5c3 2 4 5.5 4 8.5H4c0-3 1-6.5 4-8.5z M4 10l-2 3h12l-2-3 M8 10v4"></path></g><text x="40" y="328.5" font-family="IBM Plex Sans, Segoe UI, sans-serif" font-size="12" font-weight="400" fill="#625B54">Kurulum Sonrası</text><path d="M0 340.5H200" stroke="#DDD7D0"></path><g transform="translate(16 349)" fill="none" stroke="#625B54" stroke-width="1.25" stroke-linecap="round" stroke-linejoin="round"><path d="M4 2l9 6-9 6z"></path></g><text x="40" y="361.5" font-family="IBM Plex Sans, Segoe UI, sans-serif" font-size="12" font-weight="400" fill="#625B54">Uygula</text><text x="188" y="361" font-family="JetBrains Mono, Cascadia Mono, monospace" font-size="11" font-weight="400" fill="#857D75" text-anchor="end">35</text><g transform="translate(16 373)" fill="none" stroke="#625B54" stroke-width="1.25" stroke-linecap="round" stroke-linejoin="round"><path d="M7 3a5 5 0 1 0 0 10a5 5 0 1 0 0-10z M7 6.5a1.5 1.5 0 1 0 0 3a1.5 1.5 0 1 0 0-3z M13 1v4 M11 3h4"></path></g><text x="40" y="385.5" font-family="IBM Plex Sans, Segoe UI, sans-serif" font-size="12" font-weight="400" fill="#625B54">ISO Oluştur</text><path d="M0 397.5H200" stroke="#DDD7D0"></path><g transform="translate(16 406)" fill="none" stroke="#625B54" stroke-width="1.25" stroke-linecap="round" stroke-linejoin="round"><path d="M4 2h8v12l-4-3-4 3z"></path></g><text x="40" y="418.5" font-family="IBM Plex Sans, Segoe UI, sans-serif" font-size="12" font-weight="400" fill="#625B54">Presetler</text><g transform="translate(16 430)" fill="none" stroke="#625B54" stroke-width="1.25" stroke-linecap="round" stroke-linejoin="round"><path d="M2 3h12v10H2z M4 6l2 2-2 2 M8 10h3"></path></g><text x="40" y="442.5" font-family="IBM Plex Sans, Segoe UI, sans-serif" font-size="12" font-weight="400" fill="#625B54">Loglar</text><path d="M0 454.5H200" stroke="#DDD7D0"></path><g transform="translate(16 843)" fill="none" stroke="#857D75" stroke-width="1.25" stroke-linecap="round" stroke-linejoin="round"><path d="M2 3h12v10H2z M6 3v10"></path></g><text x="40" y="855.5" font-family="IBM Plex Sans, Segoe UI, sans-serif" font-size="11" font-weight="400" fill="#857D75">Daralt</text><rect x="150.5" y="843.5" width="39.400000000000006" height="13" fill="none" stroke="#C4BDB5" rx="2"></rect><text x="170.2" y="853" font-family="JetBrains Mono, Cascadia Mono, monospace" font-size="10" font-weight="400" fill="#857D75" text-anchor="middle">Ctrl B</text><rect x="0" y="876" width="1440" height="24" fill="#ECE8E3"></rect><path d="M0 875.5H1440" stroke="#DDD7D0"></path><rect x="12" y="885" width="6" height="6" fill="#857D75" rx="1"></rect><text x="24" y="891.5" font-family="IBM Plex Sans, Segoe UI, sans-serif" font-size="11" font-weight="400" fill="#625B54">Bağlı imaj yok</text><path d="M111.7 882V894" stroke="#C4BDB5"></path><text x="217" y="65" font-family="IBM Plex Sans, Segoe UI, sans-serif" font-size="16" font-weight="600" fill="#211E1B">Kaynak seç</text><text x="217" y="83" font-family="IBM Plex Sans, Segoe UI, sans-serif" font-size="11" font-weight="400" fill="#625B54">ISO, WIM, ESD, SWM veya VHD(X) aç; ya da çalışan sistemi düzenle.</text><rect x="1364.5" y="49.5" width="59" height="23" fill="none" stroke="#C4BDB5" rx="3"></rect><text x="1372" y="65.5" font-family="IBM Plex Sans, Segoe UI, sans-serif" font-size="12" font-weight="400" fill="#211E1B">Klasör…</text><rect x="1265.5" y="49.5" width="94" height="23" fill="none" stroke="#C4BDB5" rx="3"></rect><g transform="translate(1273 53)" fill="none" stroke="#211E1B" stroke-width="1.25" stroke-linecap="round" stroke-linejoin="round"><path d="M2 4h4l1.5 1.5H14V13H2z M2 8h12"></path></g><text x="1295" y="65.5" font-family="IBM Plex Sans, Segoe UI, sans-serif" font-size="12" font-weight="400" fill="#211E1B">Dosya aç…</text><rect x="217.5" y="107.5" width="886" height="159" fill="none" stroke="#C4BDB5" rx="3"></rect><g transform="translate(648.5 151) scale(1.5)" fill="none" stroke="#857D75" stroke-width="1.25" stroke-linecap="round" stroke-linejoin="round"><path d="M8 2v8 M5 7l3 3 3-3 M3 13h10"></path></g><text x="660.5" y="203" font-family="IBM Plex Sans, Segoe UI, sans-serif" font-size="12" font-weight="500" fill="#211E1B" text-anchor="middle">İmaj dosyasını buraya bırak</text><text x="660.5" y="221" font-family="IBM Plex Sans, Segoe UI, sans-serif" font-size="11" font-weight="400" fill="#625B54" text-anchor="middle">.iso · .wim · .esd · .swm · .vhd · .vhdx — birden fazla dosya kabul edilir</text><rect x="1120.5" y="107.5" width="303" height="159" fill="none" stroke="#C4BDB5" rx="3"></rect><g transform="translate(1136 123)" fill="none" stroke="#625B54" stroke-width="1.25" stroke-linecap="round" stroke-linejoin="round"><path d="M2 3h12v10H2z M2 6h12 M4 4.5h1"></path></g><text x="1160" y="135.5" font-family="IBM Plex Sans, Segoe UI, sans-serif" font-size="12" font-weight="500" fill="#211E1B">Bu bilgisayar (canlı)</text><text x="1160" y="151" font-family="IBM Plex Sans, Segoe UI, sans-serif" font-size="11" font-weight="400" fill="#625B54">Windows 11 Pro 24H2 · 26100.2314 · x64</text><text x="1136" y="191" font-family="IBM Plex Sans, Segoe UI, sans-serif" font-size="11" font-weight="400" fill="#625B54">Sürücü</text><text x="1216" y="191" font-family="JetBrains Mono, Cascadia Mono, monospace" font-size="11" font-weight="400" fill="#211E1B">C:\ · 237 GB / 476 GB</text><text x="1136" y="215" font-family="IBM Plex Sans, Segoe UI, sans-serif" font-size="11" font-weight="400" fill="#625B54">Yönetici</text><text x="1216" y="215" font-family="IBM Plex Sans, Segoe UI, sans-serif" font-size="11" font-weight="400" fill="#211E1B">Gerekli — UAC istenecek</text><rect x="1136.5" y="227.5" width="147" height="23" fill="none" stroke="#C4BDB5" rx="3"></rect><text x="1144" y="243.5" font-family="IBM Plex Sans, Segoe UI, sans-serif" font-size="12" font-weight="400" fill="#211E1B">Canlı sistemi düzenle</text><text x="217" y="306.5" font-family="IBM Plex Sans, Segoe UI, sans-serif" font-size="11" font-weight="500" fill="#625B54" letter-spacing="0.22">SON KULLANILANLAR</text><path d="M217 338.5H1424" stroke="#DDD7D0"></path><text x="217" y="330.5" font-family="IBM Plex Sans, Segoe UI, sans-serif" font-size="11" font-weight="500" fill="#857D75">Ad</text><text x="892" y="330.5" font-family="IBM Plex Sans, Segoe UI, sans-serif" font-size="11" font-weight="500" fill="#857D75" text-anchor="start">Tür</text><text x="988" y="330.5" font-family="IBM Plex Sans, Segoe UI, sans-serif" font-size="11" font-weight="500" fill="#857D75" text-anchor="start">Sürüm</text><text x="1276" y="330.5" font-family="IBM Plex Sans, Segoe UI, sans-serif" font-size="11" font-weight="500" fill="#857D75" text-anchor="end">Boyut</text><text x="1284" y="330.5" font-family="IBM Plex Sans, Segoe UI, sans-serif" font-size="11" font-weight="500" fill="#857D75" text-anchor="start">Son açılış</text><rect x="217" y="339" width="1207" height="24" fill="#E3DED8" rx="3"></rect><path d="M217 362.5H1424" stroke="#DDD7D0"></path><g transform="translate(217 343)" fill="none" stroke="#625B54" stroke-width="1.25" stroke-linecap="round" stroke-linejoin="round"><path d="M8 2a6 6 0 1 0 0 12a6 6 0 1 0 0-12z M8 6.5a1.5 1.5 0 1 0 0 3a1.5 1.5 0 1 0 0-3z"></path></g><text x="239" y="355.5" font-family="IBM Plex Sans, Segoe UI, sans-serif" font-size="12" font-weight="400" fill="#211E1B">Win11_24H2_Turkish_x64.iso</text><text x="892" y="355.5" font-family="IBM Plex Sans, Segoe UI, sans-serif" font-size="12" font-weight="400" fill="#211E1B" text-anchor="start">ISO</text><text x="988" y="355.5" font-family="IBM Plex Sans, Segoe UI, sans-serif" font-size="12" font-weight="400" fill="#211E1B" text-anchor="start">11 24H2 · 26100.1742</text><text x="1276" y="355.5" font-family="JetBrains Mono, Cascadia Mono, monospace" font-size="11" font-weight="400" fill="#211E1B" text-anchor="end">5,62 GB</text><text x="1284" y="355.5" font-family="JetBrains Mono, Cascadia Mono, monospace" font-size="11" font-weight="400" fill="#211E1B" text-anchor="start">bugün 14:02</text><path d="M217 386.5H1424" stroke="#DDD7D0"></path><g transform="translate(217 367)" fill="none" stroke="#625B54" stroke-width="1.25" stroke-linecap="round" stroke-linejoin="round"><path d="M2 3h12v10H2z M2 10l3-3 3 3 2-2 4 4"></path></g><text x="239" y="379.5" font-family="IBM Plex Sans, Segoe UI, sans-serif" font-size="12" font-weight="400" fill="#211E1B">install_slim.wim</text><text x="892" y="379.5" font-family="IBM Plex Sans, Segoe UI, sans-serif" font-size="12" font-weight="400" fill="#211E1B" text-anchor="start">WIM</text><text x="988" y="379.5" font-family="IBM Plex Sans, Segoe UI, sans-serif" font-size="12" font-weight="400" fill="#211E1B" text-anchor="start">11 23H2 · 22631.4169</text><text x="1276" y="379.5" font-family="JetBrains Mono, Cascadia Mono, monospace" font-size="11" font-weight="400" fill="#211E1B" text-anchor="end">3,90 GB</text><text x="1284" y="379.5" font-family="JetBrains Mono, Cascadia Mono, monospace" font-size="11" font-weight="400" fill="#211E1B" text-anchor="start">3 gün önce</text><path d="M217 410.5H1424" stroke="#DDD7D0"></path><g transform="translate(217 391)" fill="none" stroke="#625B54" stroke-width="1.25" stroke-linecap="round" stroke-linejoin="round"><path d="M8 2a6 6 0 1 0 0 12a6 6 0 1 0 0-12z M8 6.5a1.5 1.5 0 1 0 0 3a1.5 1.5 0 1 0 0-3z"></path></g><text x="239" y="403.5" font-family="IBM Plex Sans, Segoe UI, sans-serif" font-size="12" font-weight="400" fill="#211E1B">Win10_22H2_EN_x64.iso</text><text x="892" y="403.5" font-family="IBM Plex Sans, Segoe UI, sans-serif" font-size="12" font-weight="400" fill="#211E1B" text-anchor="start">ISO</text><text x="988" y="403.5" font-family="IBM Plex Sans, Segoe UI, sans-serif" font-size="12" font-weight="400" fill="#211E1B" text-anchor="start">10 22H2 · 19045.5011</text><text x="1276" y="403.5" font-family="JetBrains Mono, Cascadia Mono, monospace" font-size="11" font-weight="400" fill="#211E1B" text-anchor="end">5,80 GB</text><text x="1284" y="403.5" font-family="JetBrains Mono, Cascadia Mono, monospace" font-size="11" font-weight="400" fill="#211E1B" text-anchor="start">12 Eyl</text><g transform="translate(217 415)" fill="none" stroke="#625B54" stroke-width="1.25" stroke-linecap="round" stroke-linejoin="round"><path d="M2 3h12v10H2z M2 10l3-3 3 3 2-2 4 4"></path></g><text x="239" y="427.5" font-family="IBM Plex Sans, Segoe UI, sans-serif" font-size="12" font-weight="400" fill="#211E1B">ltsc2024_arm64.esd</text><text x="892" y="427.5" font-family="IBM Plex Sans, Segoe UI, sans-serif" font-size="12" font-weight="400" fill="#211E1B" text-anchor="start">ESD</text><text x="988" y="427.5" font-family="IBM Plex Sans, Segoe UI, sans-serif" font-size="12" font-weight="400" fill="#211E1B" text-anchor="start">11 LTSC · 26100.1 · ARM64</text><text x="1276" y="427.5" font-family="JetBrains Mono, Cascadia Mono, monospace" font-size="11" font-weight="400" fill="#211E1B" text-anchor="end">3,21 GB</text><text x="1284" y="427.5" font-family="JetBrains Mono, Cascadia Mono, monospace" font-size="11" font-weight="400" fill="#211E1B" text-anchor="start">2 Eyl</text></svg>